<?xml version="1.0" encoding="UTF-8" standalone="no"?>
<svg version="1.1" id="Layer_1" x="0px" y="0px" width="442225" viewBox="0 0 442225 391876" enable-background="new 0 0 665 626" xml:space="preserve" height="391876" xmlns="http://www.w3.org/2000/svg" xmlns:svg="http://www.w3.org/2000/svg">
    
    <defs id="defs9556" />

    <style>
        /* Basis-Styling für alle Pfade */
        .logo-part {
            fill-opacity: 0;          /* Anfangs keine Füllung */
            stroke-width: 3000;       /* Dicke der Linie (angepasst an riesige ViewBox) */
            stroke-linecap: round;
            stroke-linejoin: round;
            stroke-dasharray: 2000000; /* Sehr großer Wert für die gestrichelte Linie */
            stroke-dashoffset: 2000000; /* Linie ist anfangs komplett verschoben (unsichtbar) */
            
            /* Die Animationen: Erst Zeichnen (draw), dann Füllen (fade-in) */
            animation: draw 3s ease-in-out forwards, fadeIn 1s ease-out 2.5s forwards;
        }

        /* Keyframes für das Zeichnen der Linien */
        @keyframes draw {
            to {
                stroke-dashoffset: 0;
            }
        }

        /* Keyframes für das Füllen */
        @keyframes fadeIn {
            to {
                fill-opacity: 1;
                stroke-opacity: 0; /* Optional: Kontur ausblenden, wenn gefüllt */
            }
        }

        /* Optional: Verzögerung für einzelne Elemente, damit es nicht alles gleichzeitig passiert */
        /* Hier gruppiere ich sie etwas, damit es organischer wirkt */
        .logo-part:nth-of-type(1) { animation-delay: 0s, 2.5s; }
        .logo-part:nth-of-type(2) { animation-delay: 0.2s, 2.7s; }
        .logo-part:nth-of-type(3) { animation-delay: 0.4s, 2.9s; }
        .logo-part:nth-of-type(4) { animation-delay: 0.6s, 3.1s; }
        .logo-part:nth-of-type(5) { animation-delay: 0.8s, 3.3s; }
        .logo-part:nth-of-type(6) { animation-delay: 1.0s, 3.5s; }
        .logo-part:nth-of-type(7) { animation-delay: 1.2s, 3.7s; }
        .logo-part:nth-of-type(8) { animation-delay: 1.4s, 3.9s; }
        .logo-part:nth-of-type(9) { animation-delay: 1.6s, 4.1s; }
    </style>

    <g id="layer2" style="display:none">
        <rect style="fill:#000000" id="rect10457" width="677.23492" height="633.3407" x="-7.4335556" y="-1.9952958" />
        <rect style="fill:#000000" id="rect10459" width="90.538467" height="12.828961" x="354.77032" y="359.81808" />
    </g>

    <path class="logo-part" fill="#41cdfc" stroke="#41cdfc" d="m 348.66962,613.91882 c -0.002,-16.14453 -0.0661,-31.80078 0.005,-47.4563 0.19372,-42.83184 13.5159,-81.25067 39.21463,-115.39306 21.85037,-29.0296 50.25274,-49.53342 83.52679,-63.64029 6.88361,-2.91837 13.58499,-6.26538 20.38715,-9.37818 1.2955,-0.5928 2.67007,-1.01278 4.64138,-1.7489 0.12674,2.37714 0.30207,4.1366 0.30253,5.89612 0.0144,55.96152 -0.0202,111.9231 0.0858,167.88443 0.007,3.62518 -0.94943,5.66296 -4.40186,7.24341 -46.82797,21.43646 -93.58868,43.01996 -140.36969,64.55914 -0.86984,0.40052 -1.78396,0.70484 -3.39132,1.33307 0,-3.29669 0,-6.05377 -9e-5,-9.29944 z" id="path9539" />
    
    <path class="logo-part" fill="#03e2fd" stroke="#03e2fd" d="m 513.48865,121.70602 c -36.33075,2.7121 -70.34332,-4.10762 -102.76532,-19.59005 -18.48102,-8.825229 -37.17151,-17.211673 -55.76081,-25.81055 -1.59829,-0.739334 -3.1448,-1.590645 -5.58306,-2.831505 2.35632,-1.203026 3.7698,-1.988251 5.23416,-2.663086 44.75995,-20.627121 89.57928,-41.126947 134.22418,-61.999978 5.98392,-2.797681 10.67431,-2.867859 16.7019,-0.051536 44.65091,20.862626 89.48587,41.331315 134.25717,61.936455 1.59119,0.732353 3.12165,1.596817 5.66675,2.907707 -10.79651,4.993409 -20.48822,9.741898 -30.39056,14.000771 -21.23572,9.133255 -42.2807,18.845812 -64.00018,26.664332 -11.7403,4.22622 -24.70881,5.04048 -37.58423,7.43744 z" id="path9541" />
    
    <path class="logo-part" fill="#03e2fd" stroke="#03e2fd" d="m 350.54216,396.13907 c -36.33075,2.7121 -70.34332,-4.10762 -102.76532,-19.59005 -18.48102,-8.82523 -37.17151,-17.21168 -55.76081,-25.81055 -1.59829,-0.73934 -3.1448,-1.59065 -5.58306,-2.83151 2.35632,-1.20302 3.7698,-1.98825 5.23416,-2.66308 44.75995,-20.62713 89.57928,-41.12695 134.22418,-61.99998 5.98392,-2.79768 10.67431,-2.86786 16.7019,-0.0515 44.65091,20.86262 89.48587,41.33131 134.25717,61.93645 1.59119,0.73236 3.12165,1.59682 5.66675,2.90771 -10.79651,4.99341 -20.48822,9.7419 -30.39056,14.00078 -21.23572,9.13325 -42.2807,18.84581 -64.00018,26.66433 -11.7403,4.22622 -24.70881,5.04048 -37.58423,7.43744 z" id="path9541-5" />

    <path class="logo-part" fill="#03e2fd" stroke="#03e2fd" d="m 152.27136,12.207745 c 10.21166,-6.865424 19.26439,-5.907432 30.2101,-0.629843 42.44641,20.466001 85.48225,39.709459 128.29286,59.420572 1.32123,0.608322 2.57932,1.353745 4.47495,2.357132 -1.65808,1.014786 -2.67331,1.784271 -3.80307,2.305641 C 289.66925,85.711311 268.06927,96.17379 246.05292,105.67055 194.8205,127.76965 143.12149,128.22417 91.661507,106.65208 68.633644,96.998772 46.205177,85.915154 23.515289,75.457657 22.494192,74.987045 21.578089,74.288635 19.795799,73.194687 64.283928,52.715107 108.10733,32.541523 152.27136,12.207745 Z" id="path9543" />

    <path class="logo-part" fill="#41cdfc" stroke="#41cdfc" d="m 622.13684,118.90866 c 12.9538,-5.96889 25.57483,-11.76324 38.98969,-17.92206 0.15026,2.63175 0.33526,4.36509 0.33569,6.09846 0.0151,55.97546 -0.0283,111.95101 0.0994,167.92617 0.009,3.93112 -1.221,5.75418 -4.84259,7.39645 -31.46161,14.26636 -62.80181,28.80033 -94.18646,43.23642 -14.94299,6.87336 -29.90185,13.71216 -44.8623,20.54746 -1.00898,0.46097 -2.09192,0.75986 -3.78443,1.36398 -0.10577,-2.2568 -0.2558,-3.99966 -0.25866,-5.7428 -0.0299,-18.32522 -0.49012,-36.66372 0.0431,-54.97308 1.18554,-40.69843 14.16431,-77.44601 38.51007,-110.09566 18.5235,-24.84149 41.93414,-43.85188 69.95648,-57.83534 z" id="path9545" />
    
    <path class="logo-part" fill="#41cdfc" stroke="#41cdfc" d="m 294.35441,118.87536 c 12.9538,-5.96889 25.57483,-11.76324 38.98969,-17.92206 0.15026,2.63175 0.33526,4.36509 0.33569,6.09846 0.0151,55.97546 -0.0283,111.95101 0.0994,167.92617 0.009,3.93112 -1.221,5.75418 -4.84259,7.39645 -31.46161,14.26636 -62.80181,28.80033 -94.18646,43.23642 -14.94299,6.87336 -29.90185,13.71216 -44.8623,20.54746 -1.00898,0.46097 -2.09192,0.75986 -3.78443,1.36398 -0.10577,-2.2568 -0.2558,-3.99966 -0.25866,-5.7428 -0.0299,-18.32522 -0.49012,-36.66372 0.0431,-54.97308 1.18554,-40.69843 14.16431,-77.44601 38.51007,-110.09566 18.5235,-24.84149 41.93414,-43.85188 69.95648,-57.83534 z" id="path9545-3" />

    <path class="logo-part" fill="#fefefe" stroke="#fefefe" d="m 480.84833,348.01312 c -18.10553,-7.98245 -35.89176,-16.34207 -53.73526,-24.57751 -29.95746,-13.82657 -59.94348,-27.59131 -89.94394,-41.32437 -2.57477,-1.17862 -4.30505,-2.25428 -4.29642,-5.7125 0.14566,-58.32786 0.13126,-116.65613 0.16577,-175.49472 28.07929,12.08448 56.79996,23.51791 80.33173,44.23554 41.9725,36.95315 64.98117,83.27592 67.5383,139.20764 0.96347,21.07434 0.20624,42.22739 -0.0602,63.66592 z" id="path9551" />
    
    <path class="logo-part" fill="#fefefe" stroke="#fefefe" d="m 147.89401,348.05424 c -18.10553,-7.98245 -35.89176,-16.34207 -53.735256,-24.57751 -29.95746,-13.82657 -59.94348,-27.59131 -89.9439395,-41.32437 -2.57477,-1.17862 -4.30505002,-2.25428 -4.29642002,-5.7125 0.14566,-58.32786 0.13126,-116.65613 0.16577,-175.49472 28.07928952,12.08448 56.79995952,23.51791 80.33172952,44.23554 41.972496,36.95315 64.981166,83.27592 67.538296,139.20764 0.96347,21.07434 0.20624,42.22739 -0.0602,63.66592 z" id="path9551-7" />
    
    <path class="logo-part" fill="#fefefe" stroke="#fefefe" d="m 314.58479,623.16262 c -18.10553,-7.98246 -35.89175,-16.34208 -53.73525,-24.57752 -29.95746,-13.82657 -59.94348,-27.59131 -89.94394,-41.32436 -2.57477,-1.17863 -4.30505,-2.25428 -4.29642,-5.7125 0.14566,-58.32786 0.13126,-116.65614 0.16577,-175.49472 28.07929,12.08447 56.79996,23.5179 80.33173,44.23553 41.97249,36.95315 64.98116,83.27592 67.53829,139.20764 0.96347,21.07434 0.20624,42.22739 -0.0602,63.66593 z" id="path9551-7-5" />

</svg>
