<?xml version="1.0" standalone="no"?>
<svg xmlns:xlink="http://www.w3.org/1999/xlink" id="wave" style="transform:rotate(0deg); transition: 0.3s" viewBox="0 0 1440 490" version="1.1" xmlns="http://www.w3.org/2000/svg"><defs><linearGradient id="sw-gradient-0" x1="0" x2="0" y1="1" y2="0"><stop stop-color="rgba(10, 15, 30, 1)" offset="0%"/><stop stop-color="rgba(6, 182, 212, 1)" offset="100%"/></linearGradient></defs><path style="transform:translate(0, 0px); opacity:1" fill="url(#sw-gradient-0)" d="M0,245L60,228.7C120,212,240,180,360,196C480,212,600,278,720,302.2C840,327,960,310,1080,318.5C1200,327,1320,359,1440,326.7C1560,294,1680,196,1800,163.3C1920,131,2040,163,2160,220.5C2280,278,2400,359,2520,383.8C2640,408,2760,376,2880,359.3C3000,343,3120,343,3240,359.3C3360,376,3480,408,3600,416.5C3720,425,3840,408,3960,359.3C4080,310,4200,229,4320,220.5C4440,212,4560,278,4680,269.5C4800,261,4920,180,5040,138.8C5160,98,5280,98,5400,138.8C5520,180,5640,261,5760,253.2C5880,245,6000,147,6120,98C6240,49,6360,49,6480,65.3C6600,82,6720,114,6840,138.8C6960,163,7080,180,7200,220.5C7320,261,7440,327,7560,367.5C7680,408,7800,425,7920,408.3C8040,392,8160,343,8280,318.5C8400,294,8520,294,8580,294L8640,294L8640,490L8580,490C8520,490,8400,490,8280,490C8160,490,8040,490,7920,490C7800,490,7680,490,7560,490C7440,490,7320,490,7200,490C7080,490,6960,490,6840,490C6720,490,6600,490,6480,490C6360,490,6240,490,6120,490C6000,490,5880,490,5760,490C5640,490,5520,490,5400,490C5280,490,5160,490,5040,490C4920,490,4800,490,4680,490C4560,490,4440,490,4320,490C4200,490,4080,490,3960,490C3840,490,3720,490,3600,490C3480,490,3360,490,3240,490C3120,490,3000,490,2880,490C2760,490,2640,490,2520,490C2400,490,2280,490,2160,490C2040,490,1920,490,1800,490C1680,490,1560,490,1440,490C1320,490,1200,490,1080,490C960,490,840,490,720,490C600,490,480,490,360,490C240,490,120,490,60,490L0,490Z"/></svg>