<?xml version="1.0" standalone="no"?>
<svg xmlns:xlink="http://www.w3.org/1999/xlink" id="wave" style="transform:rotate(0deg); transition: 0.3s" viewBox="0 0 1440 490" version="1.1" xmlns="http://www.w3.org/2000/svg"><defs><linearGradient id="sw-gradient-0" x1="0" x2="0" y1="1" y2="0"><stop stop-color="rgba(10, 15, 30, 1)" offset="0%"/><stop stop-color="rgba(6, 182, 212, 1)" offset="100%"/></linearGradient></defs><path style="transform:translate(0, 0px); opacity:1" fill="url(#sw-gradient-0)" d="M0,196L80,204.2C160,212,320,229,480,204.2C640,180,800,114,960,98C1120,82,1280,114,1440,163.3C1600,212,1760,278,1920,294C2080,310,2240,278,2400,294C2560,310,2720,376,2880,351.2C3040,327,3200,212,3360,138.8C3520,65,3680,33,3840,24.5C4000,16,4160,33,4320,106.2C4480,180,4640,310,4800,302.2C4960,294,5120,147,5280,89.8C5440,33,5600,65,5760,89.8C5920,114,6080,131,6240,114.3C6400,98,6560,49,6720,89.8C6880,131,7040,261,7200,269.5C7360,278,7520,163,7680,138.8C7840,114,8000,180,8160,236.8C8320,294,8480,343,8640,318.5C8800,294,8960,196,9120,179.7C9280,163,9440,229,9600,220.5C9760,212,9920,131,10080,81.7C10240,33,10400,16,10560,40.8C10720,65,10880,131,11040,147C11200,163,11360,131,11440,114.3L11520,98L11520,490L11440,490C11360,490,11200,490,11040,490C10880,490,10720,490,10560,490C10400,490,10240,490,10080,490C9920,490,9760,490,9600,490C9440,490,9280,490,9120,490C8960,490,8800,490,8640,490C8480,490,8320,490,8160,490C8000,490,7840,490,7680,490C7520,490,7360,490,7200,490C7040,490,6880,490,6720,490C6560,490,6400,490,6240,490C6080,490,5920,490,5760,490C5600,490,5440,490,5280,490C5120,490,4960,490,4800,490C4640,490,4480,490,4320,490C4160,490,4000,490,3840,490C3680,490,3520,490,3360,490C3200,490,3040,490,2880,490C2720,490,2560,490,2400,490C2240,490,2080,490,1920,490C1760,490,1600,490,1440,490C1280,490,1120,490,960,490C800,490,640,490,480,490C320,490,160,490,80,490L0,490Z"/></svg>